<svg width="13" height="9" viewBox="0 0 13 9" fill="none" xmlns="http://www.w3.org/2000/svg">
<path d="M1 4C0.723858 4 0.5 4.22386 0.5 4.5C0.5 4.77614 0.723858 5 1 5V4ZM12.8536 4.85355C13.0488 4.65829 13.0488 4.34171 12.8536 4.14645L9.67157 0.964466C9.47631 0.769204 9.15973 0.769204 8.96447 0.964466C8.7692 1.15973 8.7692 1.47631 8.96447 1.67157L11.7929 4.5L8.96447 7.32843C8.7692 7.52369 8.7692 7.84027 8.96447 8.03553C9.15973 8.2308 9.47631 8.2308 9.67157 8.03553L12.8536 4.85355ZM1 5H12.5V4H1V5Z" fill="#9E9E9E"/>
</svg>
